<svg width="296" height="37" viewBox="0 0 296 37" fill="none" xmlns="http://www.w3.org/2000/svg">
<path d="M81.92 31.28C80.08 31.28 78.4267 30.96 76.96 30.32C75.52 29.6533 74.3867 28.7467 73.56 27.6C72.7333 26.4267 72.3067 25.08 72.28 23.56H76.16C76.2933 24.8667 76.8267 25.9733 77.76 26.88C78.72 27.76 80.1067 28.2 81.92 28.2C83.6533 28.2 85.0133 27.7733 86 26.92C87.0133 26.04 87.52 24.92 87.52 23.56C87.52 22.4933 87.2267 21.6267 86.64 20.96C86.0533 20.2933 85.32 19.7867 84.44 19.44C83.56 19.0933 82.3733 18.72 80.88 18.32C79.04 17.84 77.56 17.36 76.44 16.88C75.3467 16.4 74.4 15.6533 73.6 14.64C72.8267 13.6 72.44 12.2133 72.44 10.48C72.44 8.96 72.8267 7.61333 73.6 6.44C74.3733 5.26666 75.4533 4.36 76.84 3.72C78.2533 3.08 79.8667 2.76 81.68 2.76C84.2933 2.76 86.4267 3.41333 88.08 4.72C89.76 6.02667 90.7067 7.76 90.92 9.92H86.92C86.7867 8.85333 86.2267 7.92 85.24 7.12C84.2533 6.29333 82.9467 5.88 81.32 5.88C79.8 5.88 78.56 6.28 77.6 7.08C76.64 7.85333 76.16 8.94667 76.16 10.36C76.16 11.3733 76.44 12.2 77 12.84C77.5867 13.48 78.2933 13.9733 79.12 14.32C79.9733 14.64 81.16 15.0133 82.68 15.44C84.52 15.9467 86 16.4533 87.12 16.96C88.24 17.44 89.2 18.2 90 19.24C90.8 20.2533 91.2 21.64 91.2 23.4C91.2 24.76 90.84 26.04 90.12 27.24C89.4 28.44 88.3333 29.4133 86.92 30.16C85.5067 30.9067 83.84 31.28 81.92 31.28ZM120.517 8.68C122.223 8.68 123.743 9.04 125.077 9.76C126.41 10.4533 127.463 11.5067 128.237 12.92C129.01 14.3333 129.397 16.0533 129.397 18.08V31H125.797V18.6C125.797 16.4133 125.25 14.7467 124.157 13.6C123.09 12.4267 121.637 11.84 119.797 11.84C117.903 11.84 116.397 12.4533 115.277 13.68C114.157 14.88 113.597 16.6267 113.597 18.92V31H109.997V18.6C109.997 16.4133 109.45 14.7467 108.357 13.6C107.29 12.4267 105.837 11.84 103.997 11.84C102.103 11.84 100.597 12.4533 99.4766 13.68C98.3566 14.88 97.7966 16.6267 97.7966 18.92V31H94.1566V9.08H97.7966V12.24C98.5166 11.0933 99.4766 10.2133 100.677 9.6C101.903 8.98667 103.25 8.68 104.717 8.68C106.557 8.68 108.183 9.09333 109.597 9.92C111.01 10.7467 112.063 11.96 112.757 13.56C113.37 12.0133 114.383 10.8133 115.797 9.96C117.21 9.10667 118.783 8.68 120.517 8.68ZM131.608 19.96C131.608 17.72 132.061 15.76 132.968 14.08C133.874 12.3733 135.114 11.0533 136.688 10.12C138.288 9.18667 140.061 8.72 142.008 8.72C143.928 8.72 145.594 9.13333 147.008 9.96C148.421 10.7867 149.474 11.8267 150.168 13.08V9.08H153.848V31H150.168V26.92C149.448 28.2 148.368 29.2667 146.928 30.12C145.514 30.9467 143.861 31.36 141.968 31.36C140.021 31.36 138.261 30.88 136.688 29.92C135.114 28.96 133.874 27.6133 132.968 25.88C132.061 24.1467 131.608 22.1733 131.608 19.96ZM150.168 20C150.168 18.3467 149.834 16.9067 149.168 15.68C148.501 14.4533 147.594 13.52 146.448 12.88C145.328 12.2133 144.088 11.88 142.728 11.88C141.368 11.88 140.128 12.2 139.008 12.84C137.888 13.48 136.994 14.4133 136.328 15.64C135.661 16.8667 135.328 18.3067 135.328 19.96C135.328 21.64 135.661 23.1067 136.328 24.36C136.994 25.5867 137.888 26.5333 139.008 27.2C140.128 27.84 141.368 28.16 142.728 28.16C144.088 28.16 145.328 27.84 146.448 27.2C147.594 26.5333 148.501 25.5867 149.168 24.36C149.834 23.1067 150.168 21.6533 150.168 20ZM161.239 12.64C161.879 11.3867 162.785 10.4133 163.959 9.72C165.159 9.02667 166.612 8.68 168.319 8.68V12.44H167.359C163.279 12.44 161.239 14.6533 161.239 19.08V31H157.599V9.08H161.239V12.64ZM174.561 12.08V25C174.561 26.0667 174.787 26.8267 175.241 27.28C175.694 27.7067 176.481 27.92 177.601 27.92H180.281V31H177.001C174.974 31 173.454 30.5333 172.441 29.6C171.427 28.6667 170.921 27.1333 170.921 25V12.08H168.081V9.08H170.921V3.56H174.561V9.08H180.281V12.08H174.561ZM217.331 3.12L209.251 31H205.171L198.691 8.56L191.971 31L187.931 31.04L180.131 3.12H184.011L190.091 26.76L196.811 3.12H200.891L207.291 26.68L213.411 3.12H217.331ZM217.554 19.96C217.554 17.72 218.008 15.76 218.914 14.08C219.821 12.3733 221.061 11.0533 222.634 10.12C224.234 9.18667 226.008 8.72 227.954 8.72C229.874 8.72 231.541 9.13333 232.954 9.96C234.368 10.7867 235.421 11.8267 236.114 13.08V9.08H239.794V31H236.114V26.92C235.394 28.2 234.314 29.2667 232.874 30.12C231.461 30.9467 229.808 31.36 227.914 31.36C225.968 31.36 224.208 30.88 222.634 29.92C221.061 28.96 219.821 27.6133 218.914 25.88C218.008 24.1467 217.554 22.1733 217.554 19.96ZM236.114 20C236.114 18.3467 235.781 16.9067 235.114 15.68C234.448 14.4533 233.541 13.52 232.394 12.88C231.274 12.2133 230.034 11.88 228.674 11.88C227.314 11.88 226.074 12.2 224.954 12.84C223.834 13.48 222.941 14.4133 222.274 15.64C221.608 16.8667 221.274 18.3067 221.274 19.96C221.274 21.64 221.608 23.1067 222.274 24.36C222.941 25.5867 223.834 26.5333 224.954 27.2C226.074 27.84 227.314 28.16 228.674 28.16C230.034 28.16 231.274 27.84 232.394 27.2C233.541 26.5333 234.448 25.5867 235.114 24.36C235.781 23.1067 236.114 21.6533 236.114 20ZM251.306 31.36C249.626 31.36 248.119 31.08 246.786 30.52C245.452 29.9333 244.399 29.1333 243.626 28.12C242.852 27.08 242.426 25.8933 242.346 24.56H246.106C246.212 25.6533 246.719 26.5467 247.626 27.24C248.559 27.9333 249.772 28.28 251.266 28.28C252.652 28.28 253.746 27.9733 254.546 27.36C255.346 26.7467 255.746 25.9733 255.746 25.04C255.746 24.08 255.319 23.3733 254.466 22.92C253.612 22.44 252.292 21.9733 250.506 21.52C248.879 21.0933 247.546 20.6667 246.506 20.24C245.492 19.7867 244.612 19.1333 243.866 18.28C243.146 17.4 242.786 16.2533 242.786 14.84C242.786 13.72 243.119 12.6933 243.786 11.76C244.452 10.8267 245.399 10.0933 246.626 9.56C247.852 9 249.252 8.72 250.826 8.72C253.252 8.72 255.212 9.33333 256.706 10.56C258.199 11.7867 258.999 13.4667 259.106 15.6H255.466C255.386 14.4533 254.919 13.5333 254.066 12.84C253.239 12.1467 252.119 11.8 250.706 11.8C249.399 11.8 248.359 12.08 247.586 12.64C246.812 13.2 246.426 13.9333 246.426 14.84C246.426 15.56 246.652 16.16 247.106 16.64C247.586 17.0933 248.172 17.4667 248.866 17.76C249.586 18.0267 250.572 18.3333 251.826 18.68C253.399 19.1067 254.679 19.5333 255.666 19.96C256.652 20.36 257.492 20.9733 258.186 21.8C258.906 22.6267 259.279 23.7067 259.306 25.04C259.306 26.24 258.972 27.32 258.306 28.28C257.639 29.24 256.692 30 255.466 30.56C254.266 31.0933 252.879 31.36 251.306 31.36ZM266.484 12.08V25C266.484 26.0667 266.711 26.8267 267.164 27.28C267.617 27.7067 268.404 27.92 269.524 27.92H272.204V31H268.924C266.897 31 265.377 30.5333 264.364 29.6C263.351 28.6667 262.844 27.1333 262.844 25V12.08H260.004V9.08H262.844V3.56H266.484V9.08H272.204V12.08H266.484ZM294.214 19.2C294.214 19.8933 294.174 20.6267 294.094 21.4H276.574C276.708 23.56 277.441 25.2533 278.774 26.48C280.134 27.68 281.774 28.28 283.694 28.28C285.268 28.28 286.574 27.92 287.614 27.2C288.681 26.4533 289.428 25.4667 289.854 24.24H293.774C293.188 26.3467 292.014 28.0667 290.254 29.4C288.494 30.7067 286.308 31.36 283.694 31.36C281.614 31.36 279.748 30.8933 278.094 29.96C276.468 29.0267 275.188 27.7067 274.254 26C273.321 24.2667 272.854 22.2667 272.854 20C272.854 17.7333 273.308 15.7467 274.214 14.04C275.121 12.3333 276.388 11.0267 278.014 10.12C279.668 9.18667 281.561 8.72 283.694 8.72C285.774 8.72 287.614 9.17333 289.214 10.08C290.814 10.9867 292.041 12.24 292.894 13.84C293.774 15.4133 294.214 17.2 294.214 19.2ZM290.454 18.44C290.454 17.0533 290.148 15.8667 289.534 14.88C288.921 13.8667 288.081 13.1067 287.014 12.6C285.974 12.0667 284.814 11.8 283.534 11.8C281.694 11.8 280.121 12.3867 278.814 13.56C277.534 14.7333 276.801 16.36 276.614 18.44H290.454Z" fill="white"/>
<path d="M40.0204 3.56863C40.0204 1.59773 41.6318 0 43.6195 0L58.5965 0.0213403C59.167 0.165167 59.7598 0.206276 60.3349 0.330277C61.8975 0.667232 63.0545 1.89854 63.0545 3.56863C63.0545 5.53953 61.4432 7.13727 59.4554 7.13727H43.6195C41.6318 7.13727 40.0204 5.53953 40.0204 3.56863Z" fill="url(#paint0_linear_17_227)"/>
<path d="M40.9801 16.1778C40.9801 14.3383 42.4841 12.8471 44.3393 12.8471H60.6551C62.5103 12.8471 64.0143 14.3383 64.0143 16.1778C64.0143 18.0173 61.8548 18.0597 60.4152 19.0327L58.5965 19.5299L44.3393 19.5085C42.4841 19.5085 40.9801 18.0173 40.9801 16.1778Z" fill="url(#paint1_linear_17_227)"/>
<path d="M40.9801 17.1294C40.9801 15.2899 42.4841 13.7987 44.3393 13.7987C46.1945 13.7987 47.6984 15.2899 47.6984 17.1294V31.404C47.6984 33.2435 46.1945 34.7347 44.3393 34.7347C42.4841 34.7347 40.9801 33.2435 40.9801 31.404V17.1294Z" fill="url(#paint2_linear_17_227)"/>
<path d="M65.6939 9.7756C65.6939 15.1627 63.6316 19.5299 58.5965 19.5299C54.4468 19.5299 56.7676 16.621 58.2901 12.5346C59.5795 9.07396 56.6343 5.47294 56.2962 1.79538C56.1952 0.696386 56.7359 0.0213403 58.5965 0.0213403C63.6316 0.0213403 65.6939 4.38847 65.6939 9.7756Z" fill="url(#paint3_linear_17_227)"/>
<circle cx="5.24252" cy="29.5487" r="5.24252" fill="url(#paint4_linear_17_227)"/>
<rect x="11.9148" y="2.87775" width="8.57866" height="36.221" rx="4.28933" transform="rotate(-19.6002 11.9148 2.87775)" fill="url(#paint5_linear_17_227)"/>
<defs>
<linearGradient id="paint0_linear_17_227" x1="44.8192" y1="5.33982e-08" x2="44.495" y2="34.7384" gradientUnits="userSpaceOnUse">
<stop stop-color="#2267FE"/>
<stop offset="1" stop-color="#1E16FF"/>
</linearGradient>
<linearGradient id="paint1_linear_17_227" x1="44.8192" y1="5.33982e-08" x2="44.495" y2="34.7384" gradientUnits="userSpaceOnUse">
<stop stop-color="#2267FE"/>
<stop offset="1" stop-color="#1E16FF"/>
</linearGradient>
<linearGradient id="paint2_linear_17_227" x1="44.8192" y1="5.33982e-08" x2="44.495" y2="34.7384" gradientUnits="userSpaceOnUse">
<stop stop-color="#2267FE"/>
<stop offset="1" stop-color="#1E16FF"/>
</linearGradient>
<linearGradient id="paint3_linear_17_227" x1="44.8192" y1="5.33982e-08" x2="44.495" y2="34.7384" gradientUnits="userSpaceOnUse">
<stop stop-color="#2267FE"/>
<stop offset="1" stop-color="#1E16FF"/>
</linearGradient>
<linearGradient id="paint4_linear_17_227" x1="3.14864e-09" y1="29.5487" x2="10.485" y2="29.787" gradientUnits="userSpaceOnUse">
<stop stop-color="#5687FF"/>
<stop offset="0.506551" stop-color="#1657F9"/>
<stop offset="1" stop-color="#1E1AFE"/>
</linearGradient>
<linearGradient id="paint5_linear_17_227" x1="16.2041" y1="2.87775" x2="16.2041" y2="39.0988" gradientUnits="userSpaceOnUse">
<stop stop-color="#225DFE"/>
<stop offset="0.379808" stop-color="#214FFF"/>
<stop offset="1" stop-color="#1E16FF"/>
</linearGradient>
</defs>
</svg>
