<svg width="670" height="78" viewBox="0 0 670 78" fill="none" xmlns="http://www.w3.org/2000/svg">
<path d="M167.012 70.658C162.688 70.658 158.803 69.906 155.356 68.402C151.972 66.8353 149.309 64.7047 147.366 62.01C145.423 59.2527 144.421 56.088 144.358 52.516H153.476C153.789 55.5867 155.043 58.1873 157.236 60.318C159.492 62.386 162.751 63.42 167.012 63.42C171.085 63.42 174.281 62.4173 176.6 60.412C178.981 58.344 180.172 55.712 180.172 52.516C180.172 50.0093 179.483 47.9727 178.104 46.406C176.725 44.8393 175.002 43.6487 172.934 42.834C170.866 42.0193 168.077 41.142 164.568 40.202C160.244 39.074 156.766 37.946 154.134 36.818C151.565 35.69 149.34 33.9353 147.46 31.554C145.643 29.11 144.734 25.8513 144.734 21.778C144.734 18.206 145.643 15.0413 147.46 12.284C149.277 9.52666 151.815 7.396 155.074 5.892C158.395 4.388 162.187 3.636 166.448 3.636C172.589 3.636 177.603 5.17133 181.488 8.242C185.436 11.3127 187.661 15.386 188.162 20.462H178.762C178.449 17.9553 177.133 15.762 174.814 13.882C172.495 11.9393 169.425 10.968 165.602 10.968C162.03 10.968 159.116 11.908 156.86 13.788C154.604 15.6053 153.476 18.1747 153.476 21.496C153.476 23.8773 154.134 25.82 155.45 27.324C156.829 28.828 158.489 29.9873 160.432 30.802C162.437 31.554 165.226 32.4313 168.798 33.434C173.122 34.6247 176.6 35.8153 179.232 37.006C181.864 38.134 184.12 39.92 186 42.364C187.88 44.7453 188.82 48.004 188.82 52.14C188.82 55.336 187.974 58.344 186.282 61.164C184.59 63.984 182.083 66.2713 178.762 68.026C175.441 69.7807 171.524 70.658 167.012 70.658ZM257.714 17.548C261.725 17.548 265.297 18.394 268.43 20.086C271.563 21.7153 274.039 24.1907 275.856 27.512C277.673 30.8333 278.582 34.8753 278.582 39.638V70H270.122V40.86C270.122 35.7213 268.837 31.8047 266.268 29.11C263.761 26.3527 260.346 24.974 256.022 24.974C251.573 24.974 248.032 26.4153 245.4 29.298C242.768 32.118 241.452 36.2227 241.452 41.612V70H232.992V40.86C232.992 35.7213 231.707 31.8047 229.138 29.11C226.631 26.3527 223.216 24.974 218.892 24.974C214.443 24.974 210.902 26.4153 208.27 29.298C205.638 32.118 204.322 36.2227 204.322 41.612V70H195.768V18.488H204.322V25.914C206.014 23.2193 208.27 21.1513 211.09 19.71C213.973 18.2687 217.137 17.548 220.584 17.548C224.908 17.548 228.731 18.5193 232.052 20.462C235.373 22.4047 237.849 25.256 239.478 29.016C240.919 25.3813 243.301 22.5613 246.622 20.556C249.943 18.5507 253.641 17.548 257.714 17.548ZM283.778 44.056C283.778 38.792 284.843 34.186 286.974 30.238C289.104 26.2273 292.018 23.1253 295.716 20.932C299.476 18.7387 303.643 17.642 308.218 17.642C312.73 17.642 316.646 18.6133 319.968 20.556C323.289 22.4987 325.764 24.9427 327.394 27.888V18.488H336.042V70H327.394V60.412C325.702 63.42 323.164 65.9267 319.78 67.932C316.458 69.8747 312.573 70.846 308.124 70.846C303.549 70.846 299.413 69.718 295.716 67.462C292.018 65.206 289.104 62.0413 286.974 57.968C284.843 53.8947 283.778 49.2573 283.778 44.056ZM327.394 44.15C327.394 40.2647 326.61 36.8807 325.044 33.998C323.477 31.1153 321.346 28.922 318.652 27.418C316.02 25.8513 313.106 25.068 309.91 25.068C306.714 25.068 303.8 25.82 301.168 27.324C298.536 28.828 296.436 31.0213 294.87 33.904C293.303 36.7867 292.52 40.1707 292.52 44.056C292.52 48.004 293.303 51.4507 294.87 54.396C296.436 57.2787 298.536 59.5033 301.168 61.07C303.8 62.574 306.714 63.326 309.91 63.326C313.106 63.326 316.02 62.574 318.652 61.07C321.346 59.5033 323.477 57.2787 325.044 54.396C326.61 51.4507 327.394 48.0353 327.394 44.15ZM353.411 26.854C354.915 23.9087 357.046 21.6213 359.803 19.992C362.623 18.3627 366.038 17.548 370.049 17.548V26.384H367.793C358.205 26.384 353.411 31.5853 353.411 41.988V70H344.857V18.488H353.411V26.854ZM384.717 25.538V55.9C384.717 58.4067 385.25 60.1927 386.315 61.258C387.381 62.2607 389.229 62.762 391.861 62.762H398.159V70H390.451C385.689 70 382.117 68.9033 379.735 66.71C377.354 64.5167 376.163 60.9133 376.163 55.9V25.538H369.489V18.488H376.163V5.516H384.717V18.488H398.159V25.538H384.717ZM485.228 4.482L466.24 70H456.652L441.424 17.266L425.632 70L416.138 70.094L397.808 4.482H406.926L421.214 60.036L437.006 4.482H446.594L461.634 59.848L476.016 4.482H485.228ZM485.753 44.056C485.753 38.792 486.818 34.186 488.949 30.238C491.079 26.2273 493.993 23.1253 497.691 20.932C501.451 18.7387 505.618 17.642 510.193 17.642C514.705 17.642 518.621 18.6133 521.943 20.556C525.264 22.4987 527.739 24.9427 529.369 27.888V18.488H538.017V70H529.369V60.412C527.677 63.42 525.139 65.9267 521.755 67.932C518.433 69.8747 514.548 70.846 510.099 70.846C505.524 70.846 501.388 69.718 497.691 67.462C493.993 65.206 491.079 62.0413 488.949 57.968C486.818 53.8947 485.753 49.2573 485.753 44.056ZM529.369 44.15C529.369 40.2647 528.585 36.8807 527.019 33.998C525.452 31.1153 523.321 28.922 520.627 27.418C517.995 25.8513 515.081 25.068 511.885 25.068C508.689 25.068 505.775 25.82 503.143 27.324C500.511 28.828 498.411 31.0213 496.845 33.904C495.278 36.7867 494.495 40.1707 494.495 44.056C494.495 48.004 495.278 51.4507 496.845 54.396C498.411 57.2787 500.511 59.5033 503.143 61.07C505.775 62.574 508.689 63.326 511.885 63.326C515.081 63.326 517.995 62.574 520.627 61.07C523.321 59.5033 525.452 57.2787 527.019 54.396C528.585 51.4507 529.369 48.0353 529.369 44.15ZM565.068 70.846C561.12 70.846 557.58 70.188 554.446 68.872C551.313 67.4933 548.838 65.6133 547.02 63.232C545.203 60.788 544.2 57.9993 544.012 54.866H552.848C553.099 57.4353 554.29 59.5347 556.42 61.164C558.614 62.7933 561.465 63.608 564.974 63.608C568.233 63.608 570.802 62.8873 572.682 61.446C574.562 60.0047 575.502 58.1873 575.502 55.994C575.502 53.738 574.5 52.0773 572.494 51.012C570.489 49.884 567.387 48.7873 563.188 47.722C559.366 46.7193 556.232 45.7167 553.788 44.714C551.407 43.6487 549.339 42.1133 547.584 40.108C545.892 38.04 545.046 35.3453 545.046 32.024C545.046 29.392 545.83 26.9793 547.396 24.786C548.963 22.5927 551.188 20.8693 554.07 19.616C556.953 18.3 560.243 17.642 563.94 17.642C569.643 17.642 574.249 19.0833 577.758 21.966C581.268 24.8487 583.148 28.7967 583.398 33.81H574.844C574.656 31.1153 573.56 28.9533 571.554 27.324C569.612 25.6947 566.98 24.88 563.658 24.88C560.588 24.88 558.144 25.538 556.326 26.854C554.509 28.17 553.6 29.8933 553.6 32.024C553.6 33.716 554.133 35.126 555.198 36.254C556.326 37.3193 557.705 38.1967 559.334 38.886C561.026 39.5127 563.345 40.2333 566.29 41.048C569.988 42.0507 572.996 43.0533 575.314 44.056C577.633 44.996 579.607 46.4373 581.236 48.38C582.928 50.3227 583.806 52.8607 583.868 55.994C583.868 58.814 583.085 61.352 581.518 63.608C579.952 65.864 577.727 67.65 574.844 68.966C572.024 70.2193 568.766 70.846 565.068 70.846ZM600.738 25.538V55.9C600.738 58.4067 601.27 60.1927 602.336 61.258C603.401 62.2607 605.25 62.762 607.882 62.762H614.18V70H606.472C601.709 70 598.137 68.9033 595.756 66.71C593.374 64.5167 592.184 60.9133 592.184 55.9V25.538H585.51V18.488H592.184V5.516H600.738V18.488H614.18V25.538H600.738ZM665.904 42.27C665.904 43.8993 665.81 45.6227 665.622 47.44H624.45C624.763 52.516 626.486 56.4953 629.62 59.378C632.816 62.198 636.67 63.608 641.182 63.608C644.879 63.608 647.95 62.762 650.394 61.07C652.9 59.3153 654.655 56.9967 655.658 54.114H664.87C663.491 59.0647 660.734 63.1067 656.598 66.24C652.462 69.3107 647.323 70.846 641.182 70.846C636.294 70.846 631.907 69.7493 628.022 67.556C624.199 65.3627 621.191 62.2607 618.998 58.25C616.804 54.1767 615.708 49.4767 615.708 44.15C615.708 38.8233 616.773 34.1547 618.904 30.144C621.034 26.1333 624.011 23.0627 627.834 20.932C631.719 18.7387 636.168 17.642 641.182 17.642C646.07 17.642 650.394 18.7073 654.154 20.838C657.914 22.9687 660.796 25.914 662.802 29.674C664.87 33.3713 665.904 37.57 665.904 42.27ZM657.068 40.484C657.068 37.2253 656.347 34.4367 654.906 32.118C653.464 29.7367 651.49 27.9507 648.984 26.76C646.54 25.5067 643.814 24.88 640.806 24.88C636.482 24.88 632.784 26.2587 629.714 29.016C626.706 31.7733 624.982 35.596 624.544 40.484H657.068Z" fill="white"/>
<path d="M77 7.5C77 3.35786 80.3579 0 84.5 0L115.71 0.0448497C116.899 0.347104 118.135 0.433549 119.333 0.694276C122.589 1.40265 125 3.99031 125 7.5C125 11.6421 121.642 15 117.5 15H84.5C80.3579 15 77 11.6421 77 7.5Z" fill="url(#paint0_linear_5_1625)"/>
<path d="M79 34C79 30.134 82.134 27 86 27H120C123.866 27 127 30.134 127 34C127 37.866 122.5 37.9552 119.5 40L115.71 41.0448L86 41C82.134 41 79 37.866 79 34Z" fill="url(#paint1_linear_5_1625)"/>
<path d="M79 36C79 32.134 82.134 29 86 29C89.866 29 93 32.134 93 36V66C93 69.866 89.866 73 86 73C82.134 73 79 69.866 79 66V36Z" fill="url(#paint2_linear_5_1625)"/>
<path d="M130.5 20.5448C130.5 31.8667 126.202 41.0448 115.71 41.0448C107.063 41.0448 111.899 34.9313 115.072 26.3434C115.238 25.8935 115.399 25.4081 115.551 24.8995C117.48 18.4099 112.901 11.8167 111.193 5.26548C110.365 2.08939 111.056 0.0448497 115.71 0.0448497C126.202 0.0448497 130.5 9.22301 130.5 20.5448Z" fill="url(#paint3_linear_5_1625)"/>
<circle cx="11" cy="62" r="11" fill="url(#paint4_linear_5_1625)"/>
<rect x="25" y="6.03821" width="18" height="76" rx="9" transform="rotate(-19.6002 25 6.03821)" fill="url(#paint5_linear_5_1625)"/>
<defs>
<linearGradient id="paint0_linear_5_1625" x1="87" y1="1.12224e-07" x2="86.3129" y2="73.0077" gradientUnits="userSpaceOnUse">
<stop stop-color="#2267FE"/>
<stop offset="1" stop-color="#1E16FF"/>
</linearGradient>
<linearGradient id="paint1_linear_5_1625" x1="87" y1="1.12224e-07" x2="86.3129" y2="73.0077" gradientUnits="userSpaceOnUse">
<stop stop-color="#2267FE"/>
<stop offset="1" stop-color="#1E16FF"/>
</linearGradient>
<linearGradient id="paint2_linear_5_1625" x1="87" y1="1.12224e-07" x2="86.3129" y2="73.0077" gradientUnits="userSpaceOnUse">
<stop stop-color="#2267FE"/>
<stop offset="1" stop-color="#1E16FF"/>
</linearGradient>
<linearGradient id="paint3_linear_5_1625" x1="87" y1="1.12224e-07" x2="86.3129" y2="73.0077" gradientUnits="userSpaceOnUse">
<stop stop-color="#2267FE"/>
<stop offset="1" stop-color="#1E16FF"/>
</linearGradient>
<linearGradient id="paint4_linear_5_1625" x1="6.60657e-09" y1="62" x2="22" y2="62.5" gradientUnits="userSpaceOnUse">
<stop stop-color="#5687FF"/>
<stop offset="0.506551" stop-color="#1657F9"/>
<stop offset="1" stop-color="#1E1AFE"/>
</linearGradient>
<linearGradient id="paint5_linear_5_1625" x1="34" y1="6.03821" x2="34" y2="82.0382" gradientUnits="userSpaceOnUse">
<stop stop-color="#225DFE"/>
<stop offset="0.379808" stop-color="#214FFF"/>
<stop offset="1" stop-color="#1E16FF"/>
</linearGradient>
</defs>
</svg>
